<svg xmlns="http://www.w3.org/2000/svg" xmlns:xlink="http://www.w3.org/1999/xlink" width="500" zoomAndPan="magnify" viewBox="0 0 375 374.999991" height="500" preserveAspectRatio="xMidYMid meet" version="1.0"><defs><clipPath id="54cdd8b7c2"><path d="M 375 187.5 C 375 190.570312 374.925781 193.636719 374.773438 196.699219 C 374.625 199.765625 374.398438 202.824219 374.097656 205.878906 C 373.796875 208.933594 373.421875 211.976562 372.96875 215.011719 C 372.519531 218.046875 371.996094 221.070312 371.398438 224.078125 C 370.796875 227.089844 370.125 230.082031 369.378906 233.058594 C 368.636719 236.035156 367.816406 238.992188 366.925781 241.929688 C 366.035156 244.863281 365.074219 247.777344 364.039062 250.667969 C 363.003906 253.554688 361.902344 256.417969 360.726562 259.253906 C 359.554688 262.089844 358.308594 264.890625 356.996094 267.667969 C 355.6875 270.441406 354.308594 273.179688 352.859375 275.886719 C 351.414062 278.59375 349.902344 281.261719 348.324219 283.894531 C 346.746094 286.527344 345.105469 289.117188 343.402344 291.667969 C 341.695312 294.222656 339.929688 296.730469 338.101562 299.195312 C 336.273438 301.660156 334.386719 304.078125 332.4375 306.449219 C 330.492188 308.820312 328.488281 311.144531 326.429688 313.417969 C 324.367188 315.691406 322.253906 317.914062 320.082031 320.082031 C 317.914062 322.253906 315.691406 324.367188 313.417969 326.429688 C 311.144531 328.488281 308.820312 330.492188 306.449219 332.4375 C 304.078125 334.386719 301.660156 336.273438 299.195312 338.101562 C 296.730469 339.929688 294.222656 341.695312 291.667969 343.402344 C 289.117188 345.105469 286.527344 346.746094 283.894531 348.324219 C 281.261719 349.902344 278.59375 351.414062 275.886719 352.859375 C 273.179688 354.308594 270.441406 355.6875 267.667969 356.996094 C 264.890625 358.308594 262.089844 359.554688 259.253906 360.726562 C 256.417969 361.902344 253.554688 363.003906 250.667969 364.039062 C 247.777344 365.074219 244.863281 366.035156 241.929688 366.925781 C 238.992188 367.816406 236.035156 368.636719 233.058594 369.378906 C 230.082031 370.125 227.089844 370.796875 224.078125 371.398438 C 221.070312 371.996094 218.046875 372.519531 215.011719 372.96875 C 211.976562 373.421875 208.933594 373.796875 205.878906 374.097656 C 202.824219 374.398438 199.765625 374.625 196.699219 374.773438 C 193.636719 374.925781 190.570312 375 187.5 375 C 184.429688 375 181.363281 374.925781 178.300781 374.773438 C 175.234375 374.625 172.175781 374.398438 169.121094 374.097656 C 166.066406 373.796875 163.023438 373.421875 159.988281 372.96875 C 156.953125 372.519531 153.929688 371.996094 150.921875 371.398438 C 147.910156 370.796875 144.917969 370.125 141.941406 369.378906 C 138.964844 368.636719 136.007812 367.816406 133.070312 366.925781 C 130.136719 366.035156 127.222656 365.074219 124.332031 364.039062 C 121.445312 363.003906 118.582031 361.902344 115.746094 360.726562 C 112.910156 359.554688 110.105469 358.308594 107.332031 356.996094 C 104.558594 355.6875 101.820312 354.308594 99.113281 352.859375 C 96.40625 351.414062 93.738281 349.902344 91.105469 348.324219 C 88.472656 346.746094 85.882812 345.105469 83.332031 343.402344 C 80.777344 341.695312 78.269531 339.929688 75.804688 338.101562 C 73.339844 336.273438 70.921875 334.386719 68.550781 332.4375 C 66.179688 330.492188 63.855469 328.488281 61.582031 326.429688 C 59.308594 324.367188 57.085938 322.253906 54.917969 320.082031 C 52.746094 317.914062 50.632812 315.691406 48.570312 313.417969 C 46.511719 311.144531 44.507812 308.820312 42.558594 306.449219 C 40.613281 304.078125 38.726562 301.660156 36.898438 299.195312 C 35.070312 296.730469 33.304688 294.222656 31.597656 291.667969 C 29.894531 289.117188 28.253906 286.527344 26.675781 283.894531 C 25.097656 281.261719 23.585938 278.59375 22.140625 275.886719 C 20.691406 273.179688 19.3125 270.441406 18.003906 267.667969 C 16.691406 264.890625 15.445312 262.089844 14.273438 259.253906 C 13.097656 256.417969 11.996094 253.554688 10.960938 250.667969 C 9.925781 247.777344 8.964844 244.863281 8.074219 241.929688 C 7.183594 238.992188 6.363281 236.035156 5.621094 233.058594 C 4.875 230.082031 4.203125 227.089844 3.601562 224.078125 C 3.003906 221.070312 2.480469 218.046875 2.03125 215.011719 C 1.578125 211.976562 1.203125 208.933594 0.902344 205.878906 C 0.601562 202.824219 0.375 199.765625 0.226562 196.699219 C 0.0742188 193.636719 0 190.570312 0 187.5 C 0 184.429688 0.0742188 181.363281 0.226562 178.300781 C 0.375 175.234375 0.601562 172.175781 0.902344 169.121094 C 1.203125 166.066406 1.578125 163.023438 2.03125 159.988281 C 2.480469 156.953125 3.003906 153.929688 3.601562 150.921875 C 4.203125 147.910156 4.875 144.917969 5.621094 141.941406 C 6.363281 138.964844 7.183594 136.007812 8.074219 133.070312 C 8.964844 130.136719 9.925781 127.222656 10.960938 124.332031 C 11.996094 121.445312 13.097656 118.582031 14.273438 115.746094 C 15.445312 112.910156 16.691406 110.105469 18.003906 107.332031 C 19.3125 104.558594 20.691406 101.820312 22.140625 99.113281 C 23.585938 96.40625 25.097656 93.738281 26.675781 91.105469 C 28.253906 88.472656 29.894531 85.882812 31.597656 83.332031 C 33.304688 80.777344 35.070312 78.269531 36.898438 75.804688 C 38.726562 73.339844 40.613281 70.921875 42.558594 68.550781 C 44.507812 66.179688 46.511719 63.855469 48.570312 61.582031 C 50.632812 59.308594 52.746094 57.085938 54.917969 54.917969 C 57.085938 52.746094 59.308594 50.632812 61.582031 48.570312 C 63.855469 46.511719 66.179688 44.507812 68.550781 42.558594 C 70.921875 40.613281 73.339844 38.726562 75.804688 36.898438 C 78.269531 35.070312 80.777344 33.304688 83.332031 31.597656 C 85.882812 29.894531 88.472656 28.253906 91.105469 26.675781 C 93.738281 25.097656 96.40625 23.585938 99.113281 22.140625 C 101.820312 20.691406 104.558594 19.3125 107.332031 18.003906 C 110.105469 16.691406 112.910156 15.445312 115.746094 14.273438 C 118.582031 13.097656 121.445312 11.996094 124.332031 10.960938 C 127.222656 9.925781 130.136719 8.964844 133.070312 8.074219 C 136.007812 7.183594 138.964844 6.363281 141.941406 5.617188 C 144.917969 4.875 147.910156 4.203125 150.921875 3.601562 C 153.929688 3.003906 156.953125 2.480469 159.988281 2.03125 C 163.023438 1.578125 166.066406 1.203125 169.121094 0.902344 C 172.175781 0.601562 175.234375 0.375 178.300781 0.226562 C 181.363281 0.0742188 184.429688 0 187.5 0 C 190.570312 0 193.636719 0.0742188 196.699219 0.226562 C 199.765625 0.375 202.824219 0.601562 205.878906 0.902344 C 208.933594 1.203125 211.976562 1.578125 215.011719 2.03125 C 218.046875 2.480469 221.070312 3.003906 224.078125 3.601562 C 227.089844 4.203125 230.082031 4.875 233.058594 5.617188 C 236.035156 6.363281 238.992188 7.183594 241.929688 8.074219 C 244.863281 8.964844 247.777344 9.925781 250.667969 10.960938 C 253.554688 11.996094 256.417969 13.097656 259.253906 14.273438 C 262.089844 15.445312 264.890625 16.691406 267.667969 18.003906 C 270.441406 19.3125 273.179688 20.691406 275.886719 22.140625 C 278.59375 23.585938 281.261719 25.097656 283.894531 26.675781 C 286.527344 28.253906 289.117188 29.894531 291.667969 31.597656 C 294.222656 33.304688 296.730469 35.070312 299.195312 36.898438 C 301.660156 38.726562 304.078125 40.613281 306.449219 42.558594 C 308.820312 44.507812 311.144531 46.511719 313.417969 48.570312 C 315.691406 50.632812 317.914062 52.746094 320.082031 54.917969 C 322.253906 57.085938 324.367188 59.308594 326.429688 61.582031 C 328.488281 63.855469 330.492188 66.179688 332.4375 68.550781 C 334.386719 70.921875 336.273438 73.339844 338.101562 75.804688 C 339.929688 78.269531 341.695312 80.777344 343.402344 83.332031 C 345.105469 85.882812 346.746094 88.472656 348.324219 91.105469 C 349.902344 93.738281 351.414062 96.40625 352.859375 99.113281 C 354.308594 101.820312 355.6875 104.558594 356.996094 107.332031 C 358.308594 110.105469 359.554688 112.910156 360.726562 115.746094 C 361.902344 118.582031 363.003906 121.445312 364.039062 124.332031 C 365.074219 127.222656 366.035156 130.136719 366.925781 133.070312 C 367.816406 136.007812 368.636719 138.964844 369.378906 141.941406 C 370.125 144.917969 370.796875 147.910156 371.398438 150.921875 C 371.996094 153.929688 372.519531 156.953125 372.96875 159.988281 C 373.421875 163.023438 373.796875 166.066406 374.097656 169.121094 C 374.398438 172.175781 374.625 175.234375 374.773438 178.300781 C 374.925781 181.363281 375 184.429688 375 187.5 Z M 375 187.5 " clip-rule="nonzero"/></clipPath><linearGradient x1="0.000000000000000028" gradientTransform="matrix(374.999991, 0, 0, 374.999991, 0.0000045, 0)" y1="0.000000000000000028" x2="1.004902" gradientUnits="userSpaceOnUse" y2="0.995049" id="04e9ed3aae"><stop stop-opacity="1" stop-color="rgb(91.398621%, 32.899475%, 27.49939%)" offset="0"/><stop stop-opacity="1" stop-color="rgb(91.435242%, 33.087158%, 27.401733%)" offset="0.015625"/><stop stop-opacity="1" stop-color="rgb(91.508484%, 33.46405%, 27.206421%)" offset="0.03125"/><stop stop-opacity="1" stop-color="rgb(91.5802%, 33.840942%, 27.012634%)" offset="0.046875"/><stop stop-opacity="1" stop-color="rgb(91.653442%, 34.217834%, 26.817322%)" offset="0.0625"/><stop stop-opacity="1" stop-color="rgb(91.725159%, 34.593201%, 26.623535%)" offset="0.078125"/><stop stop-opacity="1" stop-color="rgb(91.798401%, 34.970093%, 26.428223%)" offset="0.09375"/><stop stop-opacity="1" stop-color="rgb(91.870117%, 35.346985%, 26.234436%)" offset="0.109375"/><stop stop-opacity="1" stop-color="rgb(91.943359%, 35.723877%, 26.039124%)" offset="0.125"/><stop stop-opacity="1" stop-color="rgb(92.015076%, 36.100769%, 25.845337%)" offset="0.140625"/><stop stop-opacity="1" stop-color="rgb(92.088318%, 36.477661%, 25.650024%)" offset="0.15625"/><stop stop-opacity="1" stop-color="rgb(92.16156%, 36.854553%, 25.456238%)" offset="0.171875"/><stop stop-opacity="1" stop-color="rgb(92.233276%, 37.231445%, 25.260925%)" offset="0.1875"/><stop stop-opacity="1" stop-color="rgb(92.306519%, 37.608337%, 25.067139%)" offset="0.203125"/><stop stop-opacity="1" stop-color="rgb(92.378235%, 37.985229%, 24.871826%)" offset="0.21875"/><stop stop-opacity="1" stop-color="rgb(92.451477%, 38.362122%, 24.67804%)" offset="0.234375"/><stop stop-opacity="1" stop-color="rgb(92.523193%, 38.737488%, 24.482727%)" offset="0.25"/><stop stop-opacity="1" stop-color="rgb(92.596436%, 39.11438%, 24.28894%)" offset="0.265625"/><stop stop-opacity="1" stop-color="rgb(92.668152%, 39.491272%, 24.093628%)" offset="0.28125"/><stop stop-opacity="1" stop-color="rgb(92.741394%, 39.868164%, 23.899841%)" offset="0.296875"/><stop stop-opacity="1" stop-color="rgb(92.814636%, 40.245056%, 23.704529%)" offset="0.3125"/><stop stop-opacity="1" stop-color="rgb(92.886353%, 40.621948%, 23.510742%)" offset="0.328125"/><stop stop-opacity="1" stop-color="rgb(92.959595%, 40.99884%, 23.31543%)" offset="0.34375"/><stop stop-opacity="1" stop-color="rgb(93.031311%, 41.375732%, 23.121643%)" offset="0.359375"/><stop stop-opacity="1" stop-color="rgb(93.104553%, 41.752625%, 22.926331%)" offset="0.375"/><stop stop-opacity="1" stop-color="rgb(93.17627%, 42.129517%, 22.732544%)" offset="0.390625"/><stop stop-opacity="1" stop-color="rgb(93.249512%, 42.506409%, 22.537231%)" offset="0.40625"/><stop stop-opacity="1" stop-color="rgb(93.322754%, 42.881775%, 22.343445%)" offset="0.421875"/><stop stop-opacity="1" stop-color="rgb(93.39447%, 43.258667%, 22.148132%)" offset="0.4375"/><stop stop-opacity="1" stop-color="rgb(93.467712%, 43.635559%, 21.954346%)" offset="0.453125"/><stop stop-opacity="1" stop-color="rgb(93.539429%, 44.012451%, 21.759033%)" offset="0.46875"/><stop stop-opacity="1" stop-color="rgb(93.612671%, 44.389343%, 21.565247%)" offset="0.484375"/><stop stop-opacity="1" stop-color="rgb(93.684387%, 44.766235%, 21.369934%)" offset="0.497537"/><stop stop-opacity="1" stop-color="rgb(93.721008%, 44.955444%, 21.273804%)" offset="0.5"/><stop stop-opacity="1" stop-color="rgb(93.757629%, 45.143127%, 21.176147%)" offset="0.502463"/><stop stop-opacity="1" stop-color="rgb(93.79425%, 45.332336%, 21.078491%)" offset="0.515625"/><stop stop-opacity="1" stop-color="rgb(93.829346%, 45.52002%, 20.980835%)" offset="0.53125"/><stop stop-opacity="1" stop-color="rgb(93.902588%, 45.896912%, 20.787048%)" offset="0.546875"/><stop stop-opacity="1" stop-color="rgb(93.97583%, 46.273804%, 20.591736%)" offset="0.5625"/><stop stop-opacity="1" stop-color="rgb(94.047546%, 46.650696%, 20.397949%)" offset="0.578125"/><stop stop-opacity="1" stop-color="rgb(94.120789%, 47.026062%, 20.202637%)" offset="0.59375"/><stop stop-opacity="1" stop-color="rgb(94.192505%, 47.402954%, 20.00885%)" offset="0.609375"/><stop stop-opacity="1" stop-color="rgb(94.265747%, 47.779846%, 19.813538%)" offset="0.625"/><stop stop-opacity="1" stop-color="rgb(94.337463%, 48.156738%, 19.619751%)" offset="0.640625"/><stop stop-opacity="1" stop-color="rgb(94.410706%, 48.53363%, 19.424438%)" offset="0.65625"/><stop stop-opacity="1" stop-color="rgb(94.482422%, 48.910522%, 19.230652%)" offset="0.671875"/><stop stop-opacity="1" stop-color="rgb(94.555664%, 49.287415%, 19.035339%)" offset="0.6875"/><stop stop-opacity="1" stop-color="rgb(94.628906%, 49.664307%, 18.841553%)" offset="0.703125"/><stop stop-opacity="1" stop-color="rgb(94.700623%, 50.041199%, 18.64624%)" offset="0.71875"/><stop stop-opacity="1" stop-color="rgb(94.773865%, 50.418091%, 18.452454%)" offset="0.734375"/><stop stop-opacity="1" stop-color="rgb(94.845581%, 50.794983%, 18.257141%)" offset="0.75"/><stop stop-opacity="1" stop-color="rgb(94.918823%, 51.170349%, 18.063354%)" offset="0.765625"/><stop stop-opacity="1" stop-color="rgb(94.99054%, 51.547241%, 17.868042%)" offset="0.78125"/><stop stop-opacity="1" stop-color="rgb(95.063782%, 51.924133%, 17.674255%)" offset="0.796875"/><stop stop-opacity="1" stop-color="rgb(95.137024%, 52.301025%, 17.478943%)" offset="0.8125"/><stop stop-opacity="1" stop-color="rgb(95.20874%, 52.677917%, 17.285156%)" offset="0.828125"/><stop stop-opacity="1" stop-color="rgb(95.281982%, 53.05481%, 17.089844%)" offset="0.84375"/><stop stop-opacity="1" stop-color="rgb(95.353699%, 53.431702%, 16.896057%)" offset="0.859375"/><stop stop-opacity="1" stop-color="rgb(95.426941%, 53.808594%, 16.700745%)" offset="0.875"/><stop stop-opacity="1" stop-color="rgb(95.498657%, 54.185486%, 16.506958%)" offset="0.890625"/><stop stop-opacity="1" stop-color="rgb(95.571899%, 54.562378%, 16.311646%)" offset="0.90625"/><stop stop-opacity="1" stop-color="rgb(95.643616%, 54.93927%, 16.117859%)" offset="0.921875"/><stop stop-opacity="1" stop-color="rgb(95.716858%, 55.314636%, 15.922546%)" offset="0.9375"/><stop stop-opacity="1" stop-color="rgb(95.7901%, 55.691528%, 15.72876%)" offset="0.953125"/><stop stop-opacity="1" stop-color="rgb(95.861816%, 56.06842%, 15.533447%)" offset="0.96875"/><stop stop-opacity="1" stop-color="rgb(95.935059%, 56.445312%, 15.339661%)" offset="0.984375"/><stop stop-opacity="1" stop-color="rgb(96.006775%, 56.822205%, 15.144348%)" offset="1"/></linearGradient><clipPath id="b4eca1de3b"><path d="M 69 98.253906 L 214 98.253906 L 214 223 L 69 223 Z M 69 98.253906 " clip-rule="nonzero"/></clipPath><clipPath id="54a7ba761e"><path d="M 167 157 L 312 157 L 312 281.253906 L 167 281.253906 Z M 167 157 " clip-rule="nonzero"/></clipPath></defs><g clip-path="url(#54cdd8b7c2)"><rect x="-37.5" fill="url(#04e9ed3aae)" width="450" y="-37.499999" height="449.999989"/></g><g clip-path="url(#b4eca1de3b)"><path fill="#ffffff" d="M 115.796875 204.984375 L 115.796875 185.089844 L 94.996094 185.089844 C 86.945312 185.089844 80.386719 178.121094 80.386719 169.554688 L 80.386719 124.699219 C 80.386719 116.128906 86.941406 109.15625 94.996094 109.15625 L 188.019531 109.15625 C 196.074219 109.15625 202.621094 116.128906 202.621094 124.699219 L 202.621094 169.554688 C 202.621094 178.121094 196.074219 185.089844 188.019531 185.089844 L 188.019531 195.996094 C 202.082031 195.996094 213.527344 184.132812 213.527344 169.554688 L 213.527344 124.699219 C 213.527344 110.121094 202.085938 98.253906 188.019531 98.253906 L 94.996094 98.253906 C 80.925781 98.253906 69.484375 110.121094 69.484375 124.699219 L 69.484375 169.554688 C 69.484375 184.132812 80.925781 195.996094 94.996094 195.996094 L 104.894531 195.996094 L 104.894531 215.324219 C 104.894531 218.289062 106.808594 220.980469 109.65625 222.027344 C 110.464844 222.328125 111.296875 222.476562 112.117188 222.476562 C 114.109375 222.476562 116.019531 221.617188 117.367188 220.023438 L 137.671875 196 L 157.9375 196 L 157.9375 185.09375 L 132.609375 185.09375 Z M 115.796875 204.984375 " fill-opacity="1" fill-rule="nonzero"/></g><g clip-path="url(#54a7ba761e)"><path fill="#ffffff" d="M 286.050781 157.03125 L 223.074219 157.03125 L 223.074219 167.9375 L 286.050781 167.9375 C 294.105469 167.9375 300.660156 174.910156 300.660156 183.480469 L 300.660156 228.328125 C 300.660156 236.898438 294.105469 243.871094 286.050781 243.871094 L 265.253906 243.871094 L 265.253906 263.773438 L 248.4375 243.875 L 193.023438 243.875 C 184.976562 243.875 178.421875 236.902344 178.421875 228.332031 L 178.421875 183.480469 C 178.421875 174.910156 184.976562 167.9375 193.023438 167.9375 L 193.023438 157.03125 C 178.960938 157.03125 167.515625 168.898438 167.515625 183.480469 L 167.515625 228.332031 C 167.515625 242.917969 178.960938 254.777344 193.023438 254.777344 L 243.375 254.777344 L 263.683594 278.816406 C 265.03125 280.398438 266.941406 281.25 268.925781 281.25 C 269.746094 281.25 270.578125 281.109375 271.386719 280.808594 C 274.242188 279.761719 276.160156 277.066406 276.160156 274.097656 L 276.160156 254.777344 L 286.050781 254.777344 C 300.121094 254.777344 311.566406 242.914062 311.566406 228.328125 L 311.566406 183.480469 C 311.566406 168.898438 300.121094 157.03125 286.050781 157.03125 Z M 286.050781 157.03125 " fill-opacity="1" fill-rule="nonzero"/></g><path fill="#ffffff" d="M 133.589844 116.292969 L 114.300781 167.109375 L 125.617188 167.109375 L 129.605469 155.796875 L 148.609375 155.796875 L 152.453125 167.109375 L 164.054688 167.109375 L 145.046875 116.292969 Z M 132.527344 147.46875 L 139.144531 128.820312 L 139.285156 128.820312 L 145.695312 147.46875 Z M 132.527344 147.46875 " fill-opacity="1" fill-rule="nonzero"/><path fill="#ffffff" d="M 215.074219 217.382812 C 215.074219 222.953125 218.636719 226.570312 224.445312 226.570312 C 231.421875 226.421875 238.324219 221.992188 240.570312 219.992188 C 242.816406 217.988281 248.867188 211.035156 251.539062 205.53125 C 254.917969 207.125 256.519531 209.796875 256.519531 212.757812 C 256.519531 219.160156 250.351562 222.871094 240.507812 224 L 245.285156 230.609375 C 260.699219 228.59375 265.945312 222.121094 265.945312 212.640625 C 265.945312 204.632812 260.90625 199.773438 254.445312 197.644531 C 254.5625 197.058594 254.777344 196.445312 254.902344 195.847656 L 246.140625 194.289062 C 246.082031 195.175781 245.90625 195.335938 245.734375 196.226562 C 242.585938 196.046875 239.089844 196.519531 237.964844 196.757812 C 237.964844 195.15625 238.023438 190.882812 238.082031 189.347656 C 245.375 189.050781 252.546875 188.460938 259.1875 187.453125 L 258.414062 178.800781 C 251.597656 180.164062 245.015625 180.878906 238.554688 181.234375 C 238.730469 179.511719 238.972656 174.644531 238.972656 174.644531 L 229.722656 173.9375 C 229.601562 176.3125 229.546875 179.097656 229.429688 181.527344 C 225.335938 181.585938 220.480469 181.585938 217.925781 181.527344 L 218.339844 189.882812 L 219.34375 189.882812 C 221.777344 189.882812 225.753906 189.761719 229.3125 189.644531 C 229.3125 191.953125 229.371094 196.933594 229.429688 199.1875 C 221.066406 202.675781 215.074219 209.144531 215.074219 217.382812 Z M 242.941406 203.984375 C 241.691406 206.472656 240.214844 208.730469 238.554688 210.621094 C 238.3125 208.664062 238.195312 206.648438 238.078125 204.519531 C 238.730469 204.402344 241.335938 203.984375 242.941406 203.984375 Z M 229.894531 207.425781 C 230.195312 210.746094 230.550781 213.945312 231.082031 216.847656 C 229.542969 217.617188 228.0625 218.09375 226.691406 218.15625 C 223.726562 218.273438 223.726562 216.378906 223.726562 215.542969 C 223.730469 212.398438 226.160156 209.5 229.894531 207.425781 Z M 229.894531 207.425781 " fill-opacity="1" fill-rule="nonzero"/></svg>